<svg width="80" height="80" viewBox="0 0 80 80" fill="none" xmlns="http://www.w3.org/2000/svg">
<path d="M29 54.8843H14.5071C13.9881 54.8843 13.4904 54.6782 13.1234 54.3112C12.7565 53.9442 12.5503 53.4465 12.5503 52.9275V17.7044C12.5503 17.1854 12.7565 16.6877 13.1234 16.3207C13.4904 15.9537 13.9881 15.7476 14.5071 15.7476H34.0755L43.8597 25.5318V31.5" stroke="#242727" stroke-width="4" stroke-linecap="round" stroke-linejoin="round"/>
<path d="M20.3774 15.7475V9.87701C20.3774 9.35802 20.5836 8.86029 20.9506 8.49331C21.3176 8.12633 21.8153 7.92017 22.3343 7.92017H41.9027L51.6869 17.7044V25" stroke="#242727" stroke-width="4" stroke-linecap="round" stroke-linejoin="round"/>
<path d="M22.3345 37.2729H34.0755" stroke="#242727" stroke-width="4" stroke-linecap="round" stroke-linejoin="round"/>
<path d="M22.3345 45.1006H34.0755" stroke="#242727" stroke-width="4" stroke-linecap="round" stroke-linejoin="round"/>
<path d="M49.2323 34.2727L30.6404 66.3861C30.3442 66.8991 30.188 67.4809 30.1875 68.0733C30.187 68.6656 30.3421 69.2477 30.6374 69.7613C30.9327 70.2748 31.3577 70.7017 31.8699 70.9993C32.3822 71.2968 32.9636 71.4545 33.5559 71.4566H70.7398C71.3322 71.4545 71.9136 71.2968 72.4258 70.9993C72.938 70.7017 73.363 70.2748 73.6583 69.7613C73.9536 69.2477 74.1088 68.6656 74.1082 68.0733C74.1077 67.4809 73.9515 66.8991 73.6553 66.3861L55.0634 34.2727C54.7695 33.7591 54.345 33.3322 53.833 33.0353C53.321 32.7384 52.7397 32.582 52.1479 32.582C51.556 32.582 50.9747 32.7384 50.4627 33.0353C49.9507 33.3322 49.5263 33.7591 49.2323 34.2727V34.2727Z" fill="#FFEEEE"/>
<path d="M52.1479 47.7939V56.2448" stroke="#F33030" stroke-width="4" stroke-linecap="round" stroke-linejoin="round"/>
<path d="M49.2323 34.2727L30.6404 66.3861C30.3442 66.8991 30.188 67.4809 30.1875 68.0733C30.187 68.6656 30.3421 69.2477 30.6374 69.7613C30.9327 70.2748 31.3577 70.7017 31.8699 70.9993C32.3822 71.2968 32.9636 71.4545 33.5559 71.4566H70.7398C71.3322 71.4545 71.9136 71.2968 72.4258 70.9993C72.938 70.7017 73.363 70.2748 73.6583 69.7613C73.9536 69.2477 74.1088 68.6656 74.1082 68.0733C74.1077 67.4809 73.9515 66.8991 73.6553 66.3861L55.0634 34.2727C54.7695 33.7591 54.345 33.3322 53.833 33.0353C53.321 32.7384 52.7397 32.582 52.1479 32.582C51.556 32.582 50.9747 32.7384 50.4627 33.0353C49.9507 33.3322 49.5263 33.7591 49.2323 34.2727V34.2727Z" stroke="#F33030" stroke-width="4" stroke-linecap="round" stroke-linejoin="round"/>
<path d="M52.1481 66.386C53.5482 66.386 54.6833 65.2509 54.6833 63.8507C54.6833 62.4505 53.5482 61.3154 52.1481 61.3154C50.7479 61.3154 49.6128 62.4505 49.6128 63.8507C49.6128 65.2509 50.7479 66.386 52.1481 66.386Z" fill="#F33030"/>
</svg>
