<svg width="40" height="40" viewBox="0 0 40 40" fill="none" xmlns="http://www.w3.org/2000/svg">
<g clip-path="url(#clip0_24_570)">
<path fill-rule="evenodd" clip-rule="evenodd" d="M30.5668 37.8171C36.2309 34.2856 40 27.9996 40 20.8333C40 9.78756 31.0457 0.833252 20 0.833252C8.9543 0.833252 0 9.78756 0 20.8333C0 29.4731 5.47842 36.8333 13.151 39.6297L13.151 28.1139C15.8406 28.1139 18.5039 28.6436 20.9888 29.6729C23.4736 30.7022 25.7315 32.2108 27.6333 34.1127C28.7534 35.2328 29.7371 36.4763 30.5668 37.8171ZM25.5989 15.8724C25.5989 19.5398 22.6259 22.5129 18.9584 22.5129C15.291 22.5129 12.3179 19.5398 12.3179 15.8724C12.3179 12.2049 15.291 9.23186 18.9584 9.23186C22.6259 9.23186 25.5989 12.2049 25.5989 15.8724Z" fill="url(#paint0_linear_24_570)"/>
</g>
<defs>
<linearGradient id="paint0_linear_24_570" x1="12.6398" y1="-3.09481" x2="25.5212" y2="44.624" gradientUnits="userSpaceOnUse">
<stop stop-color="#7EDEE4"/>
<stop offset="1" stop-color="#77DFC9"/>
</linearGradient>
<clipPath id="clip0_24_570">
<rect width="40" height="40" fill="white"/>
</clipPath>
</defs>
</svg>
