<svg width="32" height="32" viewBox="0 0 32 32" fill="none" xmlns="http://www.w3.org/2000/svg">
<g clip-path="url(#clip0_24_1029)">
<path fill-rule="evenodd" clip-rule="evenodd" d="M24.4536 30.2535C28.9848 27.4283 32 22.3995 32 16.6665C32 7.82995 24.8366 0.666504 16 0.666504C7.16344 0.666504 0 7.82995 0 16.6665C0 23.5784 4.38274 29.4666 10.5208 31.7037L10.5208 22.4907C12.6725 22.4907 14.8031 22.9145 16.791 23.738C18.7789 24.5614 20.5852 25.7683 22.1067 27.2898C23.0028 28.1859 23.7898 29.1808 24.4536 30.2535ZM20.4792 12.6977C20.4792 15.6316 18.1007 18.0101 15.1668 18.0101C12.2328 18.0101 9.85437 15.6316 9.85437 12.6977C9.85437 9.7637 12.2328 7.38525 15.1668 7.38525C18.1007 7.38525 20.4792 9.7637 20.4792 12.6977Z" fill="url(#paint0_linear_24_1029)"/>
</g>
<defs>
<linearGradient id="paint0_linear_24_1029" x1="10.1119" y1="-2.47594" x2="20.417" y2="35.6991" gradientUnits="userSpaceOnUse">
<stop stop-color="#7EDEE4"/>
<stop offset="1" stop-color="#77DFC9"/>
</linearGradient>
<clipPath id="clip0_24_1029">
<rect width="32" height="32" fill="white"/>
</clipPath>
</defs>
</svg>
