<svg width="21" height="20" viewBox="0 0 21 20" fill="none" xmlns="http://www.w3.org/2000/svg">
<path d="M17.7769 4.375H4.02686" stroke="#242727" stroke-width="1.6" stroke-linecap="round" stroke-linejoin="round"/>
<path d="M9.02686 8.125V13.125" stroke="#242727" stroke-width="1.6" stroke-linecap="round" stroke-linejoin="round"/>
<path d="M12.7769 8.125V13.125" stroke="#242727" stroke-width="1.6" stroke-linecap="round" stroke-linejoin="round"/>
<path d="M16.5269 4.375V16.25C16.5269 16.4158 16.461 16.5747 16.3438 16.6919C16.2266 16.8092 16.0676 16.875 15.9019 16.875H5.90186C5.7361 16.875 5.57712 16.8092 5.45991 16.6919C5.3427 16.5747 5.27686 16.4158 5.27686 16.25V4.375" stroke="#242727" stroke-width="1.6" stroke-linecap="round" stroke-linejoin="round"/>
<path d="M14.0269 4.375V3.125C14.0269 2.79348 13.8952 2.47554 13.6607 2.24112C13.4263 2.0067 13.1084 1.875 12.7769 1.875H9.02686C8.69533 1.875 8.37739 2.0067 8.14297 2.24112C7.90855 2.47554 7.77686 2.79348 7.77686 3.125V4.375" stroke="#242727" stroke-width="1.6" stroke-linecap="round" stroke-linejoin="round"/>
</svg>
