<svg width="341" height="504" viewBox="0 0 341 504" fill="none" xmlns="http://www.w3.org/2000/svg">
<rect x="0.8" y="0.8" width="339.4" height="502.4" rx="11.2" stroke="url(#paint0_linear_24_2727)" stroke-width="1.6" stroke-dasharray="6 6"/>
<rect x="24" y="24" width="293" height="456" rx="12" fill="#F6F8FA"/>
<rect x="111.3" y="225.8" width="118.4" height="46.4" rx="11.2" fill="white"/>
<path d="M148.25 255.25H135.75C135.418 255.25 135.101 255.118 134.866 254.884C134.632 254.649 134.5 254.332 134.5 254V245.25C134.5 244.918 134.632 244.601 134.866 244.366C135.101 244.132 135.418 244 135.75 244H138.25L139.5 242.125H144.5L145.75 244H148.25C148.582 244 148.899 244.132 149.134 244.366C149.368 244.601 149.5 244.918 149.5 245.25V254C149.5 254.332 149.368 254.649 149.134 254.884C148.899 255.118 148.582 255.25 148.25 255.25Z" stroke="#242727" stroke-width="1.6" stroke-linecap="round" stroke-linejoin="round"/>
<path d="M142 252.125C143.553 252.125 144.812 250.866 144.812 249.312C144.812 247.759 143.553 246.5 142 246.5C140.447 246.5 139.188 247.759 139.188 249.312C139.188 250.866 140.447 252.125 142 252.125Z" stroke="#242727" stroke-width="1.6" stroke-linecap="round" stroke-linejoin="round"/>
<path d="M169.233 250.143C169.233 250.96 169.1 251.669 168.834 252.271C168.568 252.868 168.136 253.33 167.539 253.657C166.946 253.979 166.16 254.14 165.18 254.14C164.195 254.14 163.407 253.977 162.814 253.65C162.221 253.319 161.792 252.85 161.526 252.243C161.265 251.636 161.134 250.913 161.134 250.073V243.878H163.213V250.227C163.213 250.983 163.395 251.536 163.759 251.886C164.123 252.231 164.597 252.404 165.18 252.404C165.567 252.404 165.91 252.329 166.209 252.18C166.508 252.026 166.741 251.79 166.909 251.473C167.082 251.151 167.168 250.736 167.168 250.227V243.878H169.233V250.143ZM171.286 256.254V246.762H173.337L173.344 247.805C173.451 247.632 173.582 247.476 173.736 247.336C173.895 247.191 174.07 247.065 174.261 246.958C174.452 246.851 174.66 246.769 174.884 246.713C175.108 246.652 175.344 246.622 175.591 246.622C176.128 246.622 176.606 246.755 177.026 247.021C177.446 247.282 177.775 247.688 178.013 248.239C178.256 248.785 178.377 249.48 178.377 250.325C178.377 251.202 178.246 251.923 177.985 252.488C177.728 253.048 177.374 253.463 176.921 253.734C176.468 254.005 175.957 254.14 175.388 254.14C175.155 254.14 174.935 254.107 174.73 254.042C174.525 253.981 174.333 253.895 174.156 253.783C173.983 253.671 173.827 253.543 173.687 253.398C173.552 253.249 173.433 253.088 173.33 252.915V256.254H171.286ZM174.898 252.642C175.341 252.642 175.712 252.458 176.011 252.089C176.314 251.72 176.466 251.137 176.466 250.339C176.466 249.639 176.321 249.093 176.032 248.701C175.747 248.304 175.369 248.106 174.898 248.106C174.371 248.106 173.976 248.321 173.715 248.75C173.458 249.175 173.33 249.704 173.33 250.339C173.33 250.745 173.386 251.123 173.498 251.473C173.615 251.823 173.787 252.105 174.016 252.32C174.249 252.535 174.543 252.642 174.898 252.642ZM182.325 254.126C181.793 254.126 181.371 254.063 181.058 253.937C180.745 253.811 180.514 253.645 180.365 253.44C180.216 253.23 180.12 252.999 180.078 252.747C180.036 252.49 180.015 252.231 180.015 251.97V243.598H182.017V251.718C182.017 251.984 182.073 252.201 182.185 252.369C182.302 252.532 182.519 252.633 182.836 252.67L183.179 252.691V253.951C183.039 253.998 182.897 254.037 182.752 254.07C182.607 254.107 182.465 254.126 182.325 254.126ZM187.874 254.14C187.164 254.14 186.546 253.988 186.019 253.685C185.496 253.382 185.09 252.952 184.801 252.397C184.516 251.842 184.374 251.184 184.374 250.423C184.374 249.662 184.516 248.997 184.801 248.428C185.09 247.859 185.496 247.415 186.019 247.098C186.546 246.781 187.167 246.622 187.881 246.622C188.595 246.622 189.213 246.778 189.736 247.091C190.258 247.399 190.662 247.838 190.947 248.407C191.231 248.976 191.374 249.648 191.374 250.423C191.374 251.151 191.234 251.795 190.954 252.355C190.678 252.91 190.279 253.347 189.757 253.664C189.239 253.981 188.611 254.14 187.874 254.14ZM187.881 252.621C188.24 252.621 188.529 252.516 188.749 252.306C188.968 252.096 189.127 251.821 189.225 251.48C189.327 251.135 189.379 250.759 189.379 250.353C189.379 249.97 189.332 249.609 189.239 249.268C189.15 248.927 188.996 248.652 188.777 248.442C188.557 248.232 188.259 248.127 187.881 248.127C187.521 248.127 187.23 248.227 187.006 248.428C186.786 248.624 186.625 248.892 186.523 249.233C186.42 249.569 186.369 249.942 186.369 250.353C186.369 250.731 186.415 251.095 186.509 251.445C186.602 251.79 186.758 252.073 186.978 252.292C187.197 252.511 187.498 252.621 187.881 252.621ZM195.075 254.14C194.613 254.14 194.198 254.054 193.829 253.881C193.461 253.708 193.169 253.459 192.954 253.132C192.74 252.801 192.632 252.399 192.632 251.928C192.632 251.135 192.929 250.533 193.521 250.122C194.114 249.707 195.05 249.492 196.328 249.478L197.231 249.464V249.03C197.231 248.699 197.133 248.444 196.937 248.267C196.746 248.085 196.447 247.996 196.041 248.001C195.743 248.006 195.458 248.076 195.187 248.211C194.921 248.346 194.739 248.582 194.641 248.918H192.94C192.968 248.395 193.12 247.966 193.395 247.63C193.671 247.289 194.044 247.037 194.515 246.874C194.991 246.706 195.53 246.622 196.132 246.622C196.874 246.622 197.469 246.715 197.917 246.902C198.365 247.084 198.69 247.348 198.89 247.693C199.091 248.034 199.191 248.44 199.191 248.911V254H197.483L197.315 252.754C197.068 253.277 196.758 253.638 196.384 253.839C196.016 254.04 195.579 254.14 195.075 254.14ZM195.761 252.796C195.948 252.796 196.128 252.763 196.3 252.698C196.478 252.628 196.634 252.537 196.769 252.425C196.909 252.308 197.021 252.178 197.105 252.033C197.189 251.888 197.231 251.739 197.231 251.585V250.514L196.496 250.528C196.156 250.533 195.838 250.575 195.544 250.654C195.25 250.729 195.012 250.852 194.83 251.025C194.653 251.198 194.564 251.431 194.564 251.725C194.564 252.061 194.681 252.325 194.914 252.516C195.148 252.703 195.43 252.796 195.761 252.796ZM203.969 254.14C202.998 254.14 202.242 253.806 201.701 253.139C201.16 252.467 200.889 251.534 200.889 250.339C200.889 249.583 200.999 248.927 201.218 248.372C201.437 247.817 201.762 247.387 202.191 247.084C202.62 246.776 203.145 246.622 203.766 246.622C204.027 246.622 204.27 246.652 204.494 246.713C204.723 246.769 204.93 246.848 205.117 246.951C205.304 247.054 205.467 247.173 205.607 247.308C205.747 247.443 205.861 247.588 205.95 247.742V243.598H208.001V254H206.517L206.286 252.516C206.221 252.717 206.13 252.913 206.013 253.104C205.896 253.295 205.747 253.47 205.565 253.629C205.383 253.783 205.159 253.907 204.893 254C204.632 254.093 204.324 254.14 203.969 254.14ZM204.417 252.67C204.93 252.67 205.313 252.49 205.565 252.131C205.822 251.772 205.95 251.165 205.95 250.311C205.945 249.816 205.887 249.406 205.775 249.079C205.663 248.752 205.495 248.51 205.271 248.351C205.052 248.188 204.772 248.106 204.431 248.106C203.988 248.106 203.619 248.276 203.325 248.617C203.031 248.953 202.884 249.518 202.884 250.311C202.884 251.118 203.022 251.713 203.297 252.096C203.572 252.479 203.946 252.67 204.417 252.67Z" fill="#242727"/>
<rect x="111.3" y="225.8" width="118.4" height="46.4" rx="11.2" stroke="url(#paint1_linear_24_2727)" stroke-width="1.6"/>
<defs>
<linearGradient id="paint0_linear_24_2727" x1="304.225" y1="504" x2="-26.9208" y2="460.611" gradientUnits="userSpaceOnUse">
<stop stop-color="#56C6DC"/>
<stop offset="1" stop-color="#63D9C7"/>
</linearGradient>
<linearGradient id="paint1_linear_24_2727" x1="217.559" y1="273" x2="121.534" y2="226.51" gradientUnits="userSpaceOnUse">
<stop stop-color="#56C6DC"/>
<stop offset="1" stop-color="#63D9C7"/>
</linearGradient>
</defs>
</svg>
