<svg width="121" height="48" viewBox="0 0 121 48" fill="none" xmlns="http://www.w3.org/2000/svg">
<rect x="1.3" y="0.8" width="118.4" height="46.4" rx="11.2" fill="white"/>
<path d="M38.25 30.25H25.75C25.4185 30.25 25.1005 30.1183 24.8661 29.8839C24.6317 29.6495 24.5 29.3315 24.5 29V20.25C24.5 19.9185 24.6317 19.6005 24.8661 19.3661C25.1005 19.1317 25.4185 19 25.75 19H28.25L29.5 17.125H34.5L35.75 19H38.25C38.5815 19 38.8995 19.1317 39.1339 19.3661C39.3683 19.6005 39.5 19.9185 39.5 20.25V29C39.5 29.3315 39.3683 29.6495 39.1339 29.8839C38.8995 30.1183 38.5815 30.25 38.25 30.25Z" stroke="#242727" stroke-width="1.6" stroke-linecap="round" stroke-linejoin="round"/>
<path d="M32 27.125C33.5533 27.125 34.8125 25.8658 34.8125 24.3125C34.8125 22.7592 33.5533 21.5 32 21.5C30.4467 21.5 29.1875 22.7592 29.1875 24.3125C29.1875 25.8658 30.4467 27.125 32 27.125Z" stroke="#242727" stroke-width="1.6" stroke-linecap="round" stroke-linejoin="round"/>
<path d="M59.233 25.143C59.233 25.9597 59.1 26.669 58.834 27.271C58.568 27.8683 58.1363 28.3303 57.539 28.657C56.9463 28.979 56.16 29.14 55.18 29.14C54.1953 29.14 53.4067 28.9767 52.814 28.65C52.2213 28.3187 51.792 27.8497 51.526 27.243C51.2647 26.6363 51.134 25.913 51.134 25.073V18.878H53.213V25.227C53.213 25.983 53.395 26.536 53.759 26.886C54.123 27.2313 54.5967 27.404 55.18 27.404C55.5673 27.404 55.9103 27.3293 56.209 27.18C56.5077 27.026 56.741 26.7903 56.909 26.473C57.0817 26.151 57.168 25.7357 57.168 25.227V18.878H59.233V25.143ZM61.2859 31.254V21.762H63.3369L63.3439 22.805C63.4512 22.6323 63.5819 22.476 63.7359 22.336C63.8945 22.1913 64.0695 22.0653 64.2609 21.958C64.4522 21.8507 64.6599 21.769 64.8839 21.713C65.1079 21.6523 65.3435 21.622 65.5909 21.622C66.1275 21.622 66.6059 21.755 67.0259 22.021C67.4459 22.2823 67.7749 22.6883 68.0129 23.239C68.2555 23.785 68.3769 24.4803 68.3769 25.325C68.3769 26.2023 68.2462 26.9233 67.9849 27.488C67.7282 28.048 67.3735 28.4633 66.9209 28.734C66.4682 29.0047 65.9572 29.14 65.3879 29.14C65.1545 29.14 64.9352 29.1073 64.7299 29.042C64.5245 28.9813 64.3332 28.895 64.1559 28.783C63.9832 28.671 63.8269 28.5427 63.6869 28.398C63.5515 28.2487 63.4325 28.0877 63.3299 27.915V31.254H61.2859ZM64.8979 27.642C65.3412 27.642 65.7122 27.4577 66.0109 27.089C66.3142 26.7203 66.4659 26.137 66.4659 25.339C66.4659 24.639 66.3212 24.093 66.0319 23.701C65.7472 23.3043 65.3692 23.106 64.8979 23.106C64.3705 23.106 63.9762 23.3207 63.7149 23.75C63.4582 24.1747 63.3299 24.7043 63.3299 25.339C63.3299 25.745 63.3859 26.123 63.4979 26.473C63.6145 26.823 63.7872 27.1053 64.0159 27.32C64.2492 27.5347 64.5432 27.642 64.8979 27.642ZM72.3251 29.126C71.7931 29.126 71.3707 29.063 71.0581 28.937C70.7454 28.811 70.5144 28.6453 70.3651 28.44C70.2157 28.23 70.1201 27.999 70.0781 27.747C70.0361 27.4903 70.0151 27.2313 70.0151 26.97V18.598H72.0171V26.718C72.0171 26.984 72.0731 27.201 72.1851 27.369C72.3017 27.5323 72.5187 27.6327 72.8361 27.67L73.1791 27.691V28.951C73.0391 28.9977 72.8967 29.0373 72.7521 29.07C72.6074 29.1073 72.4651 29.126 72.3251 29.126ZM77.8738 29.14C77.1644 29.14 76.5461 28.9883 76.0188 28.685C75.4961 28.3817 75.0901 27.9523 74.8008 27.397C74.5161 26.8417 74.3738 26.1837 74.3738 25.423C74.3738 24.6623 74.5161 23.9973 74.8008 23.428C75.0901 22.8587 75.4961 22.4153 76.0188 22.098C76.5461 21.7807 77.1668 21.622 77.8808 21.622C78.5948 21.622 79.2131 21.7783 79.7358 22.091C80.2584 22.399 80.6621 22.8377 80.9468 23.407C81.2314 23.9763 81.3738 24.6483 81.3738 25.423C81.3738 26.151 81.2338 26.795 80.9538 27.355C80.6784 27.9103 80.2794 28.3467 79.7568 28.664C79.2388 28.9813 78.6111 29.14 77.8738 29.14ZM77.8808 27.621C78.2401 27.621 78.5294 27.516 78.7488 27.306C78.9681 27.096 79.1268 26.8207 79.2248 26.48C79.3274 26.1347 79.3788 25.759 79.3788 25.353C79.3788 24.9703 79.3321 24.6087 79.2388 24.268C79.1501 23.9273 78.9961 23.652 78.7768 23.442C78.5574 23.232 78.2588 23.127 77.8808 23.127C77.5214 23.127 77.2298 23.2273 77.0058 23.428C76.7864 23.624 76.6254 23.8923 76.5228 24.233C76.4201 24.569 76.3688 24.9423 76.3688 25.353C76.3688 25.731 76.4154 26.095 76.5088 26.445C76.6021 26.7903 76.7584 27.0727 76.9778 27.292C77.1971 27.5113 77.4981 27.621 77.8808 27.621ZM85.0755 29.14C84.6135 29.14 84.1981 29.0537 83.8295 28.881C83.4608 28.7083 83.1691 28.4587 82.9545 28.132C82.7398 27.8007 82.6325 27.3993 82.6325 26.928C82.6325 26.1347 82.9288 25.5327 83.5215 25.122C84.1141 24.7067 85.0498 24.492 86.3285 24.478L87.2315 24.464V24.03C87.2315 23.6987 87.1335 23.4443 86.9375 23.267C86.7461 23.085 86.4475 22.9963 86.0415 23.001C85.7428 23.0057 85.4581 23.0757 85.1875 23.211C84.9215 23.3463 84.7395 23.582 84.6415 23.918H82.9405C82.9685 23.3953 83.1201 22.966 83.3955 22.63C83.6708 22.2893 84.0441 22.0373 84.5155 21.874C84.9915 21.706 85.5305 21.622 86.1325 21.622C86.8745 21.622 87.4695 21.7153 87.9175 21.902C88.3655 22.084 88.6898 22.3477 88.8905 22.693C89.0911 23.0337 89.1915 23.4397 89.1915 23.911V29H87.4835L87.3155 27.754C87.0681 28.2767 86.7578 28.6383 86.3845 28.839C86.0158 29.0397 85.5795 29.14 85.0755 29.14ZM85.7615 27.796C85.9481 27.796 86.1278 27.7633 86.3005 27.698C86.4778 27.628 86.6341 27.537 86.7695 27.425C86.9095 27.3083 87.0215 27.1777 87.1055 27.033C87.1895 26.8883 87.2315 26.739 87.2315 26.585V25.514L86.4965 25.528C86.1558 25.5327 85.8385 25.5747 85.5445 25.654C85.2505 25.7287 85.0125 25.8523 84.8305 26.025C84.6531 26.1977 84.5645 26.431 84.5645 26.725C84.5645 27.061 84.6811 27.3247 84.9145 27.516C85.1478 27.7027 85.4301 27.796 85.7615 27.796ZM93.9689 29.14C92.9982 29.14 92.2422 28.8063 91.7009 28.139C91.1595 27.467 90.8889 26.5337 90.8889 25.339C90.8889 24.583 90.9985 23.9273 91.2179 23.372C91.4372 22.8167 91.7615 22.3873 92.1909 22.084C92.6202 21.776 93.1452 21.622 93.7659 21.622C94.0272 21.622 94.2699 21.6523 94.4939 21.713C94.7225 21.769 94.9302 21.8483 95.1169 21.951C95.3035 22.0537 95.4669 22.1727 95.6069 22.308C95.7469 22.4433 95.8612 22.588 95.9499 22.742V18.598H98.0009V29H96.5169L96.2859 27.516C96.2205 27.7167 96.1295 27.9127 96.0129 28.104C95.8962 28.2953 95.7469 28.4703 95.5649 28.629C95.3829 28.783 95.1589 28.9067 94.8929 29C94.6315 29.0933 94.3235 29.14 93.9689 29.14ZM94.4169 27.67C94.9302 27.67 95.3129 27.4903 95.5649 27.131C95.8215 26.7717 95.9499 26.165 95.9499 25.311C95.9452 24.8163 95.8869 24.4057 95.7749 24.079C95.6629 23.7523 95.4949 23.5097 95.2709 23.351C95.0515 23.1877 94.7715 23.106 94.4309 23.106C93.9875 23.106 93.6189 23.2763 93.3249 23.617C93.0309 23.953 92.8839 24.5177 92.8839 25.311C92.8839 26.1183 93.0215 26.7133 93.2969 27.096C93.5722 27.4787 93.9455 27.67 94.4169 27.67Z" fill="#242727"/>
<rect x="1.3" y="0.8" width="118.4" height="46.4" rx="11.2" stroke="url(#paint0_linear_24_2730)" stroke-width="1.6"/>
<defs>
<linearGradient id="paint0_linear_24_2730" x1="107.559" y1="48" x2="11.5337" y2="1.50998" gradientUnits="userSpaceOnUse">
<stop stop-color="#56C6DC"/>
<stop offset="1" stop-color="#63D9C7"/>
</linearGradient>
</defs>
</svg>
